:FULLY-SPECIFIED
:FORCE-ALL-JOINTS-BE-3DOF
:DEGREES
1427
root -1.9613 13.6937 12.7028 7.00998 26.7945 6.62374
lfemur 26.482 0.0511646 -10.3696
ltibia 15.018 -0 0
lfoot -15.1102 34.4846 -0.000721581
ltoes -24.8654 0 0
rfemur -66.3715 -21.6109 12.6721
rtibia 74.5921 -0 0
rfoot -9.483 10.7028 0.0131196
rtoes 5.52371 -0 0
lowerback 10.2329 2.05428 -10.2388
upperback -3.30064 1.24497 -0.97753
thorax -9.58273 1.17896 4.4742
lowerneck -0.0384605 -11.668 -10.446
upperneck 5.87603 -16.0418 9.75917
head 3.38653 -7.97138 3.90299
lclavicle 1.0871e-14 -1.32689e-14 0
lhumerus -73.758 -18.2471 104.368
lradius 100.877 -0 0
lwrist 58.2984 0 0
lhand -9.14374 42.1396 0.000725178
lfingers 7.12502 -0 0
lthumb 16.8081 71.4325 0.000862821
rclavicle 1.0871e-14 -1.32689e-14 0
rhumerus 63.1433 -13.9855 -28.0087
rradius 82.2534 -0 0
rwrist 26.6465 0 0
rhand -43.6828 -31.0898 7.7339e-05
rfingers 7.12502 -0 0
rthumb -16.5158 -60.4069 5.80734e-05
1428
root -1.9718 13.6946 12.699 6.9985 26.8209 6.63183
lfemur 26.3976 0.0389252 -10.3612
ltibia 15.1677 -0 0
lfoot -15.1267 34.4917 -0.00068965
ltoes -24.725 0 0
rfemur -66.3537 -21.6284 12.6626
rtibia 74.5801 -0 0
rfoot -9.46619 10.7093 0.0121082
rtoes 5.52206 -0 0
lowerback 10.2299 2.04574 -10.2571
upperback -3.31018 1.23111 -0.974061
thorax -9.59023 1.17419 4.49079
lowerneck -0.0419235 -11.6635 -10.4406
upperneck 5.88703 -16.035 9.7412
head 3.38778 -7.96821 3.897
lclavicle 1.0871e-14 -1.32689e-14 0
lhumerus -73.7757 -18.2593 104.393
lradius 100.868 -0 0
lwrist 58.3259 0 0
lhand -9.15316 42.074 0.000743161
lfingers 7.12502 -0 0
lthumb 16.799 71.3675 0.000865863
rclavicle 1.0871e-14 -1.32689e-14 0
rhumerus 63.116 -13.9743 -27.9872
rradius 82.264 -0 0
rwrist 26.6201 0 0
rhand -43.673 -31.0895 5.96141e-05
rfingers 7.12502 -0 0
rthumb -16.5064 -60.4074 4.2627e-05
1429
root -1.98388 13.6958 12.6955 6.98494 26.8493 6.63938
lfemur 26.3083 0.025808 -10.3537
ltibia 15.3264 -0 0
lfoot -15.1463 34.4984 -0.00064665
ltoes -24.5839 0 0
rfemur -66.3299 -21.6436 12.6496
rtibia 74.562 -0 0
rfoot -9.44572 10.7133 0.0109825
rtoes 5.51283 -0 0
lowerback 10.2276 2.03734 -10.2753
upperback -3.31937 1.21739 -0.970629
thorax -9.5978 1.16946 4.50723
lowerneck -0.0445596 -11.6594 -10.436
upperneck 5.89789 -16.0287 9.72398
head 3.38905 -7.96531 3.89137
lclavicle 1.0871e-14 -1.32689e-14 0
lhumerus -73.7929 -18.2699 104.416
lradius 100.86 -0 0
lwrist 58.3525 0 0
lhand -9.16362 42.0103 0.000739242
lfingers 7.12502 -0 0
lthumb 16.789 71.3046 0.000846703
rclavicle 1.0871e-14 -1.32689e-14 0
rhumerus 63.0887 -13.9631 -27.9646
rradius 82.274 -0 0
rwrist 26.5964 0 0
rhand -43.6635 -31.0902 4.34415e-05
rfingers 7.12502 -0 0
rthumb -16.4972 -60.4088 2.87694e-05
1430
root -1.99763 13.6972 12.6921 6.96927 26.8796 6.64635
lfemur 26.2142 0.0118152 -10.3473
ltibia 15.4942 -0 0
lfoot -15.1691 34.5048 -0.000592034
ltoes -24.4425 0 0
rfemur -66.3 -21.6563 12.6329
rtibia 74.5378 -0 0
rfoot -9.42153 10.7145 0.00974264
rtoes 5.49579 -0 0
lowerback 10.2261 2.02911 -10.2933
upperback -3.32818 1.20385 -0.96724
thorax -9.60543 1.1648 4.52348
lowerneck -0.0463376 -11.6556 -10.4324
upperneck 5.9086 -16.023 9.70758
head 3.39032 -7.9627 3.88612
lclavicle 1.0871e-14 -1.32689e-14 0
lhumerus -73.8095 -18.2789 104.439
lradius 100.854 -0 0
lwrist 58.3782 0 0
lhand -9.17512 41.9488 0.000711937
lfingers 7.12502 -0 0
lthumb 16.7779 71.244 0.000803951
rclavicle 1.0871e-14 -1.32689e-14 0
rhumerus 63.0614 -13.9518 -27.941
rradius 82.2834 -0 0
rwrist 26.5756 0 0
rhand -43.6542 -31.092 2.91547e-05
rfingers 7.12502 -0 0
rthumb -16.4883 -60.4113 1.68042e-05
1431
root -2.01313 13.6987 12.6891 6.95145 26.9117 6.65271
lfemur 26.1153 -0.00305135 -10.3419
ltibia 15.6709 -0 0
lfoot -15.1952 34.5107 -0.000525327
ltoes -24.3011 0 0
rfemur -66.2638 -21.6664 12.6126
rtibia 74.5072 -0 0
rfoot -9.39356 10.713 0.00838945
rtoes 5.47075 -0 0
lowerback 10.2254 2.02107 -10.311
upperback -3.33658 1.19051 -0.963906
thorax -9.6131 1.16021 4.53948
lowerneck -0.0472264 -11.6521 -10.4297
upperneck 5.91911 -16.0178 9.69206
head 3.3916 -7.96039 3.88127
lclavicle 1.0871e-14 -1.32689e-14 0
lhumerus -73.8254 -18.2862 104.461
lradius 100.848 -0 0
lwrist 58.4028 0 0
lhand -9.18768 41.8897 0.000659951
lfingers 7.12502 -0 0
lthumb 16.7658 71.1859 0.000736406
rclavicle 1.0871e-14 -1.32689e-14 0
rhumerus 63.0342 -13.9406 -27.9163
rradius 82.2921 -0 0
rwrist 26.5578 0 0
rhand -43.6454 -31.0948 1.70773e-05
rfingers 7.12502 -0 0
rthumb -16.4798 -60.4148 7.02488e-06
1432
root -2.03046 13.7005 12.6865 6.93145 26.9458 6.65842
lfemur 26.0117 -0.0187902 -10.3376
ltibia 15.8563 -0 0
lfoot -15.2247 34.5162 -0.000446136
ltoes -24.16 0 0
rfemur -66.2214 -21.6737 12.5886
rtibia 74.4702 -0 0
rfoot -9.36173 10.7086 0.00692442
rtoes 5.4375 -0 0
lowerback 10.2256 2.01326 -10.3285
upperback -3.34453 1.17743 -0.960635
thorax -9.6208 1.1557 4.55521
lowerneck -0.047195 -11.649 -10.428
upperneck 5.92941 -16.0132 9.67748
head 3.39289 -7.95841 3.87685
lclavicle 1.0871e-14 -1.32689e-14 0
lhumerus -73.8406 -18.2917 104.481
lradius 100.843 -0 0
lwrist 58.4262 0 0
lhand -9.20129 41.8332 0.000582192
lfingers 7.12502 -0 0
lthumb 16.7527 71.1305 0.000643067
rclavicle 1.0871e-14 -1.32689e-14 0
rhumerus 63.0071 -13.9295 -27.8907
rradius 82.3 -0 0
rwrist 26.5432 0 0
rhand -43.6369 -31.0987 7.51977e-06
rfingers 7.12502 -0 0
rthumb -16.4716 -60.4194 -2.89268e-07
1433
root -2.0497 13.7024 12.6843 6.90924 26.9817 6.66344
lfemur 25.9034 -0.0354004 -10.3345
ltibia 16.0505 -0 0
lfoot -15.2575 34.5212 -0.000354155
ltoes -24.0194 0 0
rfemur -66.1725 -21.6783 12.5607
rtibia 74.4266 -0 0
rfoot -9.32599 10.7013 0.0053497
rtoes 5.39582 -0 0
lowerback 10.2266 2.00568 -10.3456
upperback -3.35201 1.16462 -0.957437
thorax -9.62851 1.1513 4.57062
lowerneck -0.0462121 -11.6462 -10.4273
upperneck 5.93946 -16.0093 9.66391
head 3.39418 -7.95676 3.87288
lclavicle 1.0871e-14 -1.32689e-14 0
lhumerus -73.8551 -18.2953 104.5
lradius 100.84 -0 0
lwrist 58.4484 0 0
lhand -9.21597 41.7796 0.000477797
lfingers 7.12502 -0 0
lthumb 16.7385 71.078 0.000523155
rclavicle 1.0871e-14 -1.32689e-14 0
rhumerus 62.9802 -13.9184 -27.8641
rradius 82.3072 -0 0
rwrist 26.5319 0 0
rhand -43.6289 -31.1037 7.74957e-07
rfingers 7.12502 -0 0
rthumb -16.4639 -60.4251 -4.87641e-06
1434
root -2.07094 13.7045 12.6826 6.88479 27.0194 6.66774
lfemur 25.7905 -0.0528815 -10.3325
ltibia 16.2533 -0 0
lfoot -15.2937 34.5258 -0.000249182
ltoes -23.8798 0 0
rfemur -66.117 -21.6799 12.5289
rtibia 74.3762 -0 0
rfoot -9.28628 10.6909 0.00366816
rtoes 5.3455 -0 0
lowerback 10.2286 1.99837 -10.3624
upperback -3.35899 1.15213 -0.954321
thorax -9.63622 1.147 4.58565
lowerneck -0.0442467 -11.6438 -10.4277
upperneck 5.94923 -16.0059 9.65141
head 3.39547 -7.95546 3.8694
lclavicle 1.0871e-14 -1.32689e-14 0
lhumerus -73.8688 -18.297 104.517
lradius 100.838 -0 0
lwrist 58.4693 0 0
lhand -9.23173 41.729 0.00034615
lfingers 7.12502 -0 0
lthumb 16.7234 71.0286 0.000376139
rclavicle 1.0871e-14 -1.32689e-14 0
rhumerus 62.9536 -13.9075 -27.8364
rradius 82.3135 -0 0
rwrist 26.524 0 0
rhand -43.6213 -31.1098 -2.88559e-06
rfingers 7.12502 -0 0
rthumb -16.4566 -60.4318 -6.496e-06
1435
root -2.09425 13.7067 12.6814 6.85805 27.059 6.67127
lfemur 25.6731 -0.0712333 -10.3317
ltibia 16.4646 -0 0
lfoot -15.3335 34.5299 -0.000131121
ltoes -23.7415 0 0
rfemur -66.0547 -21.6784 12.4932
rtibia 74.319 -0 0
rfoot -9.24252 10.6773 0.00188344
rtoes 5.28634 -0 0
lowerback 10.2315 1.99136 -10.3787
upperback -3.36542 1.13999 -0.951297
thorax -9.64391 1.14283 4.60028
lowerneck -0.0412676 -11.6419 -10.4291
upperneck 5.9587 -16.0033 9.64004
head 3.39676 -7.95453 3.86641
lclavicle 1.0871e-14 -1.32689e-14 0
lhumerus -73.8816 -18.2967 104.533
lradius 100.837 -0 0
lwrist 58.4887 0 0
lhand -9.24857 41.6817 0.000186903
lfingers 7.12502 -0 0
lthumb 16.7072 70.9825 0.000201749
rclavicle 1.0871e-14 -1.32689e-14 0
rhumerus 62.9273 -13.8967 -27.8079
rradius 82.3189 -0 0
rwrist 26.5196 0 0
rhand -43.6142 -31.1172 -3.2159e-06
rfingers 7.12502 -0 0
rthumb -16.4497 -60.4397 -4.93263e-06
1436
root -2.11972 13.7091 12.6808 366.829 27.1005 366.674
lfemur 25.5512 -0.0904563 -10.3322
ltibia 16.6844 0 0
lfoot -15.3767 34.5334 0
ltoes -23.6046 0 0
rfemur -65.9857 -21.6738 12.4534
rtibia 74.2547 0 0
rfoot -9.19466 10.6606 0
rtoes 5.21813 0 0
lowerback 10.2353 1.98466 -10.3946
upperback -3.37128 1.12825 -0.948374
thorax -9.65157 1.13879 4.61446
lowerneck -0.0372435 -11.6403 -10.4317
upperneck 5.96783 -16.0014 9.62987
head 3.39804 -7.95398 3.86395
lclavicle 9.37161e-15 9.6659e-15 0
lhumerus -73.8935 -18.2944 104.547
lradius 100.837 0 0
lwrist 58.5067 0 0
lhand -9.26649 41.6378 0
lfingers 7.12502 0 0
lthumb 16.6899 -289.06 0
rclavicle 9.37161e-15 9.6659e-15 0
rhumerus 62.9014 -13.886 -27.7784
rradius 82.3235 0 0
rwrist 26.519 0 0
rhand -43.6076 -31.1257 0
rfingers 7.12502 0 0
rthumb -16.4434 -60.4488 0
1437
root -2.14502 13.7109 12.6765 6.89809 27.2174 6.70885
lfemur 25.3623 -0.136605 -10.2692
ltibia 16.7896 -0 0
lfoot -15.3462 34.472 -0.00102699
ltoes -23.6945 0 0
rfemur -66.0192 -21.6245 12.4363
rtibia 74.2663 -0 0
rfoot -9.19435 10.4216 -0.00144565
rtoes 5.1966 -0 0
lowerback 10.3225 1.98979 -10.3401
upperback -3.34915 1.13271 -0.945612
thorax -9.67606 1.13833 4.58408
lowerneck -0.129332 -11.5469 -10.3724
upperneck 5.96568 -15.8597 9.52784
head 3.39439 -7.88437 3.83311
lclavicle 9.37161e-15 9.6659e-15 0
lhumerus -73.5648 -18.3862 104.485
lradius 100.807 -0 0
lwrist 58.387 0 0
lhand -9.44076 41.6235 -0.00168716
lfingers 7.12502 -0 0
lthumb 16.5218 70.934 -0.00256612
rclavicle 9.37161e-15 9.6659e-15 0
rhumerus 62.7361 -13.6575 -27.7217
rradius 82.2645 -0 0
rwrist 26.2758 0 0
rhand -43.3314 -31.0629 0.0106311
rfingers 7.12502 -0 0
rthumb -16.1769 -60.3944 0.00884689
1438
root -2.16791 13.7114 12.6645 6.97556 27.3492 6.74762
lfemur 25.1503 -0.188422 -10.199
ltibia 16.9061 -0 0
lfoot -15.313 34.4019 -0.00214575
ltoes -23.8038 0 0
rfemur -66.054 -21.5661 12.4152
rtibia 74.276 -0 0
rfoot -9.19243 10.1495 -0.00308425
rtoes 5.16714 -0 0
lowerback 10.4218 1.99607 -10.2773
upperback -3.32335 1.13864 -0.942715
thorax -9.70335 1.13811 4.54871
lowerneck -0.232458 -11.4418 -10.3066
upperneck 5.96223 -15.7004 9.41418
head 3.39017 -7.8061 3.79885
lclavicle 9.37161e-15 9.6659e-15 0
lhumerus -73.1918 -18.4877 104.411
lradius 100.775 -0 0
lwrist 58.2495 0 0
lhand -9.63783 41.6124 -0.00363282
lfingers 7.12502 -0 0
lthumb 16.3317 70.9324 -0.00547402
rclavicle 9.37161e-15 9.6659e-15 0
rhumerus 62.5514 -13.3998 -27.659
rradius 82.1967 -0 0
rwrist 26.0044 0 0
rhand -43.0202 -30.9926 0.0222853
rfingers 7.12502 -0 0
rthumb -15.8765 -60.3336 0.0185441
1439
root -2.18855 13.7108 12.6455 7.06103 27.4952 6.79018
lfemur 24.9164 -0.245524 -10.1219
ltibia 17.0333 -0 0
lfoot -15.2772 34.3237 -0.00333763
ltoes -23.9315 0 0
rfemur -66.09 -21.4991 12.3901
rtibia 74.2838 -0 0
rfoot -9.18896 9.84582 -0.00489303
rtoes 5.13008 -0 0
lowerback 10.5325 2.00341 -10.2067
upperback -3.29408 1.14598 -0.939691
thorax -9.73328 1.13809 4.50857
lowerneck -0.345987 -11.3254 -10.2345
upperneck 5.95741 -15.5244 9.28954
head 3.38537 -7.71961 3.76137
lclavicle 9.37161e-15 9.6659e-15 0
lhumerus -72.7765 -18.5983 104.328
lradius 100.739 -0 0
lwrist 58.0952 0 0
lhand -9.85654 41.6046 -0.00581547
lfingers 7.12502 -0 0
lthumb 16.1208 70.935 -0.0086863
rclavicle 9.37161e-15 9.6659e-15 0
rhumerus 62.3484 -13.1143 -27.591
rradius 82.1207 -0 0
rwrist 25.7063 0 0
rhand -42.6756 -30.9152 0.0347716
rfingers 7.12502 -0 0
rthumb -15.5439 -60.2666 0.0289326
